<svg width="82" height="76" viewBox="0 0 82 76" fill="none" xmlns="http://www.w3.org/2000/svg">
<path d="M59.75 0.5C51.6992 0.5 44.7969 7.59375 41 18.4102C37.2031 7.59375 30.3008 0.5 22.25 0.5C9.98438 0.5 0.375 16.9727 0.375 38C0.375 59.0273 9.98438 75.5 22.25 75.5C30.3008 75.5 37.2031 68.4062 41 57.5898C44.7969 68.4062 51.6992 75.5 59.75 75.5C72.0156 75.5 81.625 59.0273 81.625 38C81.625 16.9727 72.0156 0.5 59.75 0.5ZM32.7656 60.8086C29.8398 66.1719 26.0078 69.25 22.25 69.25C18.4922 69.25 14.6602 66.1719 11.7344 60.8086C9.8429 57.2217 8.49485 53.3737 7.73438 49.3906C9.63821 50.2511 11.7274 50.6206 13.8109 50.4655C15.8944 50.3103 17.9057 49.6354 19.6611 48.5024C21.4165 47.3695 22.8599 45.8146 23.8594 43.9799C24.8589 42.1452 25.3825 40.0893 25.3825 38C25.3825 35.9107 24.8589 33.8548 23.8594 32.0201C22.8599 30.1854 21.4165 28.6305 19.6611 27.4976C17.9057 26.3646 15.8944 25.6897 13.8109 25.5345C11.7274 25.3794 9.63821 25.7489 7.73438 26.6094C8.49485 22.6263 9.8429 18.7783 11.7344 15.1914C14.6602 9.82812 18.4922 6.75 22.25 6.75C26.0078 6.75 29.8398 9.82812 32.7656 15.1914C36.0586 21.2305 37.875 29.332 37.875 38C37.875 46.668 36.0586 54.7695 32.7656 60.8086ZM70.2656 60.8086C67.3398 66.1719 63.5078 69.25 59.75 69.25C55.9922 69.25 52.1602 66.1719 49.2344 60.8086C47.3429 57.2217 45.9948 53.3737 45.2344 49.3906C47.1382 50.2511 49.2274 50.6206 51.3109 50.4655C53.3944 50.3103 55.4057 49.6354 57.1611 48.5024C58.9165 47.3695 60.3599 45.8146 61.3594 43.9799C62.3589 42.1452 62.8825 40.0893 62.8825 38C62.8825 35.9107 62.3589 33.8548 61.3594 32.0201C60.3599 30.1854 58.9165 28.6305 57.1611 27.4976C55.4057 26.3646 53.3944 25.6897 51.3109 25.5345C49.2274 25.3794 47.1382 25.7489 45.2344 26.6094C45.9948 22.6263 47.3429 18.7783 49.2344 15.1914C52.1602 9.82812 55.9922 6.75 59.75 6.75C63.5078 6.75 67.3398 9.82812 70.2656 15.1914C73.5586 21.2305 75.375 29.332 75.375 38C75.375 46.668 73.5586 54.7695 70.2656 60.8086Z" fill="white"/>
</svg>
