<svg width="20" height="22" viewBox="0 0 20 22" fill="none" xmlns="http://www.w3.org/2000/svg">
<path d="M9.99992 0C11.0608 0 12.0782 0.421427 12.8283 1.17157C13.5785 1.92172 13.9999 2.93913 13.9999 4L13.9979 4.055L14.0279 4.037C14.8706 3.54815 15.8636 3.38621 16.8179 3.582L17.0549 3.638C17.56 3.77458 18.0332 4.00966 18.4471 4.32972C18.861 4.64979 19.2076 5.04852 19.4669 5.503C19.9944 6.42097 20.1375 7.51032 19.8649 8.53338C19.5924 9.55644 18.9263 10.4302 18.0119 10.964L17.9439 11L18.0149 11.039C18.8963 11.5544 19.5479 12.3865 19.8369 13.3658C20.1258 14.3451 20.0304 15.3977 19.5699 16.309L19.4689 16.495C19.2095 16.9501 18.8625 17.3494 18.4481 17.6698C18.0336 17.9902 17.5599 18.2254 17.0541 18.3619C16.5483 18.4983 16.0205 18.5334 15.5011 18.4649C14.9818 18.3964 14.4811 18.2259 14.0279 17.963L13.9979 17.943L13.9999 18C13.9999 19.0262 13.6055 20.0132 12.8982 20.7568C12.1909 21.5004 11.2249 21.9437 10.1999 21.995L9.99992 22C8.93905 22 7.92164 21.5786 7.17149 20.8284C6.42135 20.0783 5.99992 19.0609 5.99992 18L6.00092 17.944L5.97192 17.963C5.12938 18.4522 4.13637 18.6145 3.18192 18.419L2.94592 18.363C2.44063 18.2265 1.96731 17.9915 1.55319 17.6714C1.13908 17.3514 0.792335 16.9526 0.532921 16.498C0.00554234 15.5804 -0.137667 14.4914 0.134516 13.4686C0.406699 12.4458 1.0722 11.5721 1.98592 11.038L2.05592 11L1.98492 10.962C1.10353 10.4466 0.451912 9.61446 0.162962 8.63519C-0.125989 7.65591 -0.0305119 6.6033 0.429921 5.692L0.529921 5.505C0.789354 5.04949 1.13643 4.64986 1.55112 4.32919C1.96581 4.00852 2.43991 3.77315 2.94604 3.63667C3.45218 3.50018 3.98033 3.46529 4.50002 3.534C5.01971 3.60272 5.52065 3.77367 5.97392 4.037L5.99992 4.055V4C5.99992 2.97376 6.39436 1.98677 7.10164 1.24319C7.80893 0.499605 8.77496 0.0563121 9.79992 0.005L9.99992 0ZM9.99992 8C9.20427 8 8.44121 8.31607 7.8786 8.87868C7.31599 9.44129 6.99992 10.2044 6.99992 11C6.99992 11.7956 7.31599 12.5587 7.8786 13.1213C8.44121 13.6839 9.20427 14 9.99992 14C10.7956 14 11.5586 13.6839 12.1212 13.1213C12.6839 12.5587 12.9999 11.7956 12.9999 11C12.9999 10.2044 12.6839 9.44129 12.1212 8.87868C11.5586 8.31607 10.7956 8 9.99992 8Z" fill="white"/>
</svg>
