<svg width="34" height="34" viewBox="0 0 34 34" fill="none" xmlns="http://www.w3.org/2000/svg">
<path d="M9.99992 0.333336H23.9999C29.3333 0.333336 33.6666 4.66667 33.6666 10V24C33.6666 26.5638 32.6481 29.0225 30.8353 30.8354C29.0224 32.6482 26.5637 33.6667 23.9999 33.6667H9.99992C4.66659 33.6667 0.333252 29.3333 0.333252 24V10C0.333252 7.43624 1.3517 4.97749 3.16455 3.16464C4.97741 1.35179 7.43616 0.333336 9.99992 0.333336ZM9.66659 3.66667C8.07529 3.66667 6.54916 4.29881 5.42394 5.42403C4.29873 6.54925 3.66659 8.07537 3.66659 9.66667V24.3333C3.66659 27.65 6.34992 30.3333 9.66659 30.3333H24.3333C25.9246 30.3333 27.4507 29.7012 28.5759 28.576C29.7011 27.4508 30.3333 25.9246 30.3333 24.3333V9.66667C30.3333 6.35 27.6499 3.66667 24.3333 3.66667H9.66659ZM25.7499 6.16667C26.3025 6.16667 26.8324 6.38616 27.2231 6.77686C27.6138 7.16756 27.8333 7.69747 27.8333 8.25C27.8333 8.80254 27.6138 9.33244 27.2231 9.72314C26.8324 10.1138 26.3025 10.3333 25.7499 10.3333C25.1974 10.3333 24.6675 10.1138 24.2768 9.72314C23.8861 9.33244 23.6666 8.80254 23.6666 8.25C23.6666 7.69747 23.8861 7.16756 24.2768 6.77686C24.6675 6.38616 25.1974 6.16667 25.7499 6.16667ZM16.9999 8.66667C19.2101 8.66667 21.3297 9.54464 22.8925 11.1074C24.4553 12.6702 25.3333 14.7899 25.3333 17C25.3333 19.2101 24.4553 21.3298 22.8925 22.8926C21.3297 24.4554 19.2101 25.3333 16.9999 25.3333C14.7898 25.3333 12.6702 24.4554 11.1074 22.8926C9.54456 21.3298 8.66659 19.2101 8.66659 17C8.66659 14.7899 9.54456 12.6702 11.1074 11.1074C12.6702 9.54464 14.7898 8.66667 16.9999 8.66667ZM16.9999 12C15.6738 12 14.4021 12.5268 13.4644 13.4645C12.5267 14.4022 11.9999 15.6739 11.9999 17C11.9999 18.3261 12.5267 19.5979 13.4644 20.5355C14.4021 21.4732 15.6738 22 16.9999 22C18.326 22 19.5978 21.4732 20.5355 20.5355C21.4731 19.5979 21.9999 18.3261 21.9999 17C21.9999 15.6739 21.4731 14.4022 20.5355 13.4645C19.5978 12.5268 18.326 12 16.9999 12Z" fill="white"/>
</svg>
