<svg width="115" height="116" viewBox="0 0 115 116" fill="none" xmlns="http://www.w3.org/2000/svg">
<path d="M52.4688 46.7938C54.3229 46.7938 55.8854 46.1521 57.1563 44.8687C58.4271 43.5896 59.0625 42.0208 59.0625 40.1625C59.0625 38.3083 58.4208 36.7458 57.1375 35.475C55.8583 34.2042 54.2896 33.5688 52.4313 33.5688C50.5771 33.5688 49.0146 34.2104 47.7438 35.4937C46.4729 36.7729 45.8375 38.3417 45.8375 40.2C45.8375 42.0542 46.4792 43.6167 47.7625 44.8875C49.0417 46.1583 50.6104 46.7938 52.4688 46.7938ZM110.369 115.025C107.356 115.025 102.373 113.081 95.4188 109.194C88.4646 105.306 81.0083 100.44 73.05 94.5938C70.5917 95.6771 68.0271 96.4896 65.3563 97.0312C62.6813 97.5688 59.9417 97.8375 57.1375 97.8375C45.825 97.8375 36.2521 93.9208 28.4188 86.0875C20.5854 78.2542 16.6688 68.6812 16.6688 57.3687C16.6688 54.5646 16.9458 51.8 17.5 49.075C18.05 46.35 18.8667 43.7583 19.95 41.3C14.2042 33.425 9.44167 26.075 5.66251 19.25C1.88334 12.425 -0.00415978 7.54583 6.88326e-06 4.6125C6.88326e-06 3.24583 0.379175 2.13542 1.13751 1.28125C1.90001 0.427084 2.87501 0 4.06251 0C5.73334 0 8.79584 1.05833 13.25 3.175C17.7 5.28333 22.8146 8.0875 28.5938 11.5875C29.3271 12.0208 29.7896 12.6563 29.9813 13.4938C30.1729 14.3313 30.0563 15.1146 29.6313 15.8438C29.2146 16.5729 28.5875 17.0562 27.75 17.2937C26.9083 17.5271 26.1188 17.4271 25.3813 16.9938C22.2021 15.1271 19.0938 13.3979 16.0563 11.8063C13.0188 10.2104 9.97709 8.70208 6.93126 7.28125C9.20626 12.2021 11.6917 16.9792 14.3875 21.6125C17.0875 26.2417 19.9958 30.8208 23.1125 35.35C26.75 29.725 31.5208 25.2167 37.425 21.825C43.3333 18.4375 49.9042 16.7438 57.1375 16.7438C68.4542 16.7438 78.0542 20.6854 85.9375 28.5688C93.8208 36.4521 97.7625 46.0521 97.7625 57.3687C97.7625 64.6062 96.0625 71.1979 92.6625 77.1438C89.2583 83.0896 84.7438 87.8813 79.1188 91.5188C83.7271 94.7146 88.3938 97.6875 93.1188 100.438C97.8438 103.183 102.706 105.723 107.706 108.056C106.31 105.035 104.81 102.006 103.206 98.9688C101.594 95.9313 99.8542 92.8229 97.9875 89.6437C97.5583 88.9062 97.4604 88.0938 97.6938 87.2063C97.9313 86.3271 98.4146 85.6729 99.1438 85.2438C99.8729 84.8188 100.679 84.7229 101.563 84.9562C102.446 85.1896 103.098 85.6688 103.519 86.3938C106.981 92.1646 109.758 97.2708 111.85 101.713C113.942 106.154 114.988 109.215 114.988 110.894C114.988 112.152 114.563 113.154 113.713 113.9C112.863 114.646 111.748 115.021 110.369 115.025ZM68.0688 74.4375C69.3604 74.4375 70.4458 74 71.325 73.125C72.2 72.25 72.6375 71.1667 72.6375 69.875C72.6375 68.5833 72.2 67.4979 71.325 66.6188C70.4542 65.7438 69.3708 65.3063 68.075 65.3063C66.7792 65.3063 65.6958 65.7438 64.825 66.6188C63.95 67.4896 63.5125 68.5729 63.5125 69.8688C63.5125 71.1646 63.95 72.2479 64.825 73.1188C65.6958 73.9938 66.7792 74.4313 68.075 74.4313M75.9875 53.6438C77.1958 53.6438 78.2021 53.2479 79.0063 52.4563C79.8104 51.6646 80.2125 50.6646 80.2125 49.4562C80.2125 48.2479 79.8167 47.2417 79.025 46.4375C78.2333 45.6333 77.2333 45.2313 76.025 45.2313C74.8167 45.2313 73.8125 45.6271 73.0125 46.4188C72.2042 47.2063 71.8 48.2063 71.8 49.4188C71.8 50.6271 72.1958 51.6313 72.9875 52.4313C73.7792 53.2396 74.7792 53.6438 75.9875 53.6438Z" fill="white"/>
<path d="M52.4688 46.7938C54.3229 46.7938 55.8854 46.1521 57.1563 44.8687C58.4271 43.5896 59.0625 42.0208 59.0625 40.1625C59.0625 38.3083 58.4208 36.7458 57.1375 35.475C55.8583 34.2042 54.2896 33.5688 52.4313 33.5688C50.5771 33.5688 49.0146 34.2104 47.7438 35.4937C46.4729 36.7729 45.8375 38.3417 45.8375 40.2C45.8375 42.0542 46.4792 43.6167 47.7625 44.8875C49.0417 46.1583 50.6104 46.7938 52.4688 46.7938ZM110.369 115.025C107.356 115.025 102.373 113.081 95.4188 109.194C88.4646 105.306 81.0083 100.44 73.05 94.5938C70.5917 95.6771 68.0271 96.4896 65.3563 97.0312C62.6813 97.5688 59.9417 97.8375 57.1375 97.8375C45.825 97.8375 36.2521 93.9208 28.4188 86.0875C20.5854 78.2542 16.6688 68.6812 16.6688 57.3687C16.6688 54.5646 16.9458 51.8 17.5 49.075C18.05 46.35 18.8667 43.7583 19.95 41.3C14.2042 33.425 9.44167 26.075 5.66251 19.25C1.88334 12.425 -0.00415978 7.54583 6.88326e-06 4.6125C6.88326e-06 3.24583 0.379175 2.13542 1.13751 1.28125C1.90001 0.427084 2.87501 0 4.06251 0C5.73334 0 8.79584 1.05833 13.25 3.175C17.7 5.28333 22.8146 8.0875 28.5938 11.5875C29.3271 12.0208 29.7896 12.6563 29.9813 13.4938C30.1729 14.3313 30.0563 15.1146 29.6313 15.8438C29.2146 16.5729 28.5875 17.0562 27.75 17.2937C26.9083 17.5271 26.1188 17.4271 25.3813 16.9938C22.2021 15.1271 19.0938 13.3979 16.0563 11.8063C13.0188 10.2104 9.97709 8.70208 6.93126 7.28125C9.20626 12.2021 11.6917 16.9792 14.3875 21.6125C17.0875 26.2417 19.9958 30.8208 23.1125 35.35C26.75 29.725 31.5208 25.2167 37.425 21.825C43.3333 18.4375 49.9042 16.7438 57.1375 16.7438C68.4542 16.7438 78.0542 20.6854 85.9375 28.5688C93.8208 36.4521 97.7625 46.0521 97.7625 57.3687C97.7625 64.6062 96.0625 71.1979 92.6625 77.1438C89.2583 83.0896 84.7438 87.8813 79.1188 91.5188C83.7271 94.7146 88.3938 97.6875 93.1188 100.438C97.8438 103.183 102.706 105.723 107.706 108.056C106.31 105.035 104.81 102.006 103.206 98.9688C101.594 95.9313 99.8542 92.8229 97.9875 89.6437C97.5583 88.9062 97.4604 88.0938 97.6938 87.2063C97.9313 86.3271 98.4146 85.6729 99.1438 85.2438C99.8729 84.8188 100.679 84.7229 101.563 84.9562C102.446 85.1896 103.098 85.6688 103.519 86.3938C106.981 92.1646 109.758 97.2708 111.85 101.713C113.942 106.154 114.988 109.215 114.988 110.894C114.988 112.152 114.563 113.154 113.713 113.9C112.863 114.646 111.748 115.021 110.369 115.025ZM68.0688 74.4375C69.3604 74.4375 70.4458 74 71.325 73.125C72.2 72.25 72.6375 71.1667 72.6375 69.875C72.6375 68.5833 72.2 67.4979 71.325 66.6188C70.4542 65.7438 69.3708 65.3063 68.075 65.3063C66.7792 65.3063 65.6958 65.7438 64.825 66.6188C63.95 67.4896 63.5125 68.5729 63.5125 69.8688C63.5125 71.1646 63.95 72.2479 64.825 73.1188C65.6958 73.9938 66.7792 74.4313 68.075 74.4313M75.9875 53.6438C77.1958 53.6438 78.2021 53.2479 79.0063 52.4563C79.8104 51.6646 80.2125 50.6646 80.2125 49.4562C80.2125 48.2479 79.8167 47.2417 79.025 46.4375C78.2333 45.6333 77.2333 45.2313 76.025 45.2313C74.8167 45.2313 73.8125 45.6271 73.0125 46.4188C72.2042 47.2063 71.8 48.2063 71.8 49.4188C71.8 50.6271 72.1958 51.6313 72.9875 52.4313C73.7792 53.2396 74.7792 53.6438 75.9875 53.6438Z" fill="white"/>
<path d="M52.4688 46.7938C54.3229 46.7938 55.8854 46.1521 57.1563 44.8687C58.4271 43.5896 59.0625 42.0208 59.0625 40.1625C59.0625 38.3083 58.4208 36.7458 57.1375 35.475C55.8583 34.2042 54.2896 33.5688 52.4313 33.5688C50.5771 33.5688 49.0146 34.2104 47.7438 35.4937C46.4729 36.7729 45.8375 38.3417 45.8375 40.2C45.8375 42.0542 46.4792 43.6167 47.7625 44.8875C49.0417 46.1583 50.6104 46.7938 52.4688 46.7938ZM110.369 115.025C107.356 115.025 102.373 113.081 95.4188 109.194C88.4646 105.306 81.0083 100.44 73.05 94.5938C70.5917 95.6771 68.0271 96.4896 65.3563 97.0312C62.6813 97.5688 59.9417 97.8375 57.1375 97.8375C45.825 97.8375 36.2521 93.9208 28.4188 86.0875C20.5854 78.2542 16.6688 68.6812 16.6688 57.3687C16.6688 54.5646 16.9458 51.8 17.5 49.075C18.05 46.35 18.8667 43.7583 19.95 41.3C14.2042 33.425 9.44167 26.075 5.66251 19.25C1.88334 12.425 -0.00415978 7.54583 6.88326e-06 4.6125C6.88326e-06 3.24583 0.379175 2.13542 1.13751 1.28125C1.90001 0.427084 2.87501 0 4.06251 0C5.73334 0 8.79584 1.05833 13.25 3.175C17.7 5.28333 22.8146 8.0875 28.5938 11.5875C29.3271 12.0208 29.7896 12.6563 29.9813 13.4938C30.1729 14.3313 30.0563 15.1146 29.6313 15.8438C29.2146 16.5729 28.5875 17.0562 27.75 17.2937C26.9083 17.5271 26.1188 17.4271 25.3813 16.9938C22.2021 15.1271 19.0938 13.3979 16.0563 11.8063C13.0188 10.2104 9.97709 8.70208 6.93126 7.28125C9.20626 12.2021 11.6917 16.9792 14.3875 21.6125C17.0875 26.2417 19.9958 30.8208 23.1125 35.35C26.75 29.725 31.5208 25.2167 37.425 21.825C43.3333 18.4375 49.9042 16.7438 57.1375 16.7438C68.4542 16.7438 78.0542 20.6854 85.9375 28.5688C93.8208 36.4521 97.7625 46.0521 97.7625 57.3687C97.7625 64.6062 96.0625 71.1979 92.6625 77.1438C89.2583 83.0896 84.7438 87.8813 79.1188 91.5188C83.7271 94.7146 88.3938 97.6875 93.1188 100.438C97.8438 103.183 102.706 105.723 107.706 108.056C106.31 105.035 104.81 102.006 103.206 98.9688C101.594 95.9313 99.8542 92.8229 97.9875 89.6437C97.5583 88.9062 97.4604 88.0938 97.6938 87.2063C97.9313 86.3271 98.4146 85.6729 99.1438 85.2438C99.8729 84.8188 100.679 84.7229 101.563 84.9562C102.446 85.1896 103.098 85.6688 103.519 86.3938C106.981 92.1646 109.758 97.2708 111.85 101.713C113.942 106.154 114.988 109.215 114.988 110.894C114.988 112.152 114.563 113.154 113.713 113.9C112.863 114.646 111.748 115.021 110.369 115.025ZM68.0688 74.4375C69.3604 74.4375 70.4458 74 71.325 73.125C72.2 72.25 72.6375 71.1667 72.6375 69.875C72.6375 68.5833 72.2 67.4979 71.325 66.6188C70.4542 65.7438 69.3708 65.3063 68.075 65.3063C66.7792 65.3063 65.6958 65.7438 64.825 66.6188C63.95 67.4896 63.5125 68.5729 63.5125 69.8688C63.5125 71.1646 63.95 72.2479 64.825 73.1188C65.6958 73.9938 66.7792 74.4313 68.075 74.4313M75.9875 53.6438C77.1958 53.6438 78.2021 53.2479 79.0063 52.4563C79.8104 51.6646 80.2125 50.6646 80.2125 49.4562C80.2125 48.2479 79.8167 47.2417 79.025 46.4375C78.2333 45.6333 77.2333 45.2313 76.025 45.2313C74.8167 45.2313 73.8125 45.6271 73.0125 46.4188C72.2042 47.2063 71.8 48.2063 71.8 49.4188C71.8 50.6271 72.1958 51.6313 72.9875 52.4313C73.7792 53.2396 74.7792 53.6438 75.9875 53.6438Z" fill="white"/>
</svg>
