<svg width="31" height="37" viewBox="0 0 31 37" fill="none" xmlns="http://www.w3.org/2000/svg">
<path d="M28.573 24.1389L28.3129 4.52857C28.3115 3.61 27.9494 2.72872 27.3046 2.07452C26.6598 1.42032 25.7838 1.04555 24.8653 1.03092C23.9469 1.01629 23.0594 1.36297 22.3941 1.99629C21.7288 2.62962 21.3388 3.49892 21.3082 4.41698L20.9149 13.0976M9.58314 17.4351L7.77776 10.4341C7.55356 9.57646 7.00631 8.83876 6.25055 8.37542C5.49479 7.91209 4.58911 7.75903 3.72307 7.94828C2.85702 8.13754 2.09774 8.65444 1.60415 9.3908C1.11056 10.1272 0.920922 11.0259 1.07492 11.8989L3.66814 26.3177M16.515 20.1747L16.2971 17.6842C16.22 16.8035 15.7963 15.9895 15.119 15.4212C14.4418 14.853 13.5666 14.577 12.6859 14.6541C11.8052 14.7311 10.9912 15.1549 10.4229 15.8321C9.85468 16.5093 9.57872 17.3846 9.65577 18.2652L10.1642 24.0764" stroke="white" stroke-width="2" stroke-linecap="round" stroke-linejoin="round"/>
<path d="M23.1562 19.5935L22.8657 16.2728C22.7886 15.3921 22.3649 14.5781 21.6876 14.0099C21.0104 13.4416 20.1352 13.1656 19.2545 13.2427C18.3738 13.3197 17.5598 13.7435 16.9915 14.4207C16.4233 15.0979 16.1473 15.9732 16.2244 16.8539L16.5149 20.1745" stroke="white" stroke-width="2" stroke-linecap="round" stroke-linejoin="round"/>
<path d="M28.5731 24.139C28.2642 30.8581 23.8693 34.5887 16.9922 35.1904C10.1151 35.792 4.24925 32.9592 3.66821 26.3179" stroke="white" stroke-width="2"/>
<path d="M19.9052 26.5701L15.4356 26.9611C14.5549 27.0382 13.6797 26.7622 13.0025 26.194C12.3253 25.6257 11.9015 24.8117 11.8245 23.931C11.7474 23.0503 12.0234 22.1751 12.5916 21.4979C13.1599 20.8206 13.9739 20.3969 14.8546 20.3198L21.4959 19.7388C25.1652 19.4178 29.2579 22.4058 28.0333 27.532" stroke="white" stroke-width="2" stroke-linecap="round" stroke-linejoin="round"/>
</svg>
