<svg width="38" height="17" viewBox="0 0 38 17" fill="none" xmlns="http://www.w3.org/2000/svg">
<path d="M18.2668 2.78333V16.3333H32.8667C35.9501 16.1167 37.3334 14.2167 37.3334 11.8833C37.3334 9.41667 35.4667 7.43333 32.9667 7.43333C32.3334 7.43333 31.8001 7.56667 31.2501 7.8C30.8501 3.9 27.5334 0.849998 23.4501 0.849998C21.5001 0.849998 19.6501 1.58333 18.2668 2.78333ZM16.8001 4.48333C16.3001 4.18333 15.7667 3.95 15.1834 3.83333V16.3333H17.5001V3.56667C17.2501 3.83333 17.0167 4.16667 16.8001 4.48333ZM12.8834 3.58333V16.3333H14.4167V3.63333C14.1001 3.58333 13.7834 3.56667 13.4501 3.56667C13.2501 3.56667 13.0667 3.56667 12.8834 3.58333ZM9.83342 4.66667V16.3333H11.3501V3.9C10.8001 4.08333 10.2834 4.35 9.83342 4.66667ZM7.05008 8.83333C6.95008 8.83333 6.85008 8.73333 6.73341 8.68333V16.3333H8.26675V6.1C7.65008 6.9 7.23342 7.85 7.05008 8.83333ZM3.65008 8.36667V16.1833C4.00008 16.2833 4.40008 16.3333 4.83342 16.3333H5.20008V8.23333C5.06675 8.21667 4.93341 8.2 4.83342 8.2C4.40008 8.2 4.00008 8.26667 3.65008 8.36667ZM0.666748 12.2667C0.666748 13.5167 1.23341 14.6167 2.11675 15.3667V9.18333C1.23341 9.91667 0.666748 11.0333 0.666748 12.2667Z" fill="white"/>
</svg>
