<svg width="34" height="28" viewBox="0 0 34 28" fill="none" xmlns="http://www.w3.org/2000/svg">
<path d="M22.9667 22L17 18.1667L11.0334 22L12.8334 15.1333L7.35004 10.6667L14.4334 10.2333L17 3.66666L19.5667 10.2333L26.65 10.6667L21.1667 15.1333M30.3334 14C30.3334 13.1159 30.6846 12.2681 31.3097 11.643C31.9348 11.0178 32.7826 10.6667 33.6667 10.6667V3.99999C33.6667 3.11593 33.3155 2.26809 32.6904 1.64297C32.0653 1.01785 31.2174 0.666656 30.3334 0.666656H3.66671C2.78265 0.666656 1.93481 1.01785 1.30968 1.64297C0.684563 2.26809 0.333374 3.11593 0.333374 3.99999V10.6667C1.21743 10.6667 2.06528 11.0178 2.6904 11.643C3.31552 12.2681 3.66671 13.1159 3.66671 14C3.66671 14.884 3.31552 15.7319 2.6904 16.357C2.06528 16.9821 1.21743 17.3333 0.333374 17.3333V24C0.333374 24.884 0.684563 25.7319 1.30968 26.357C1.93481 26.9821 2.78265 27.3333 3.66671 27.3333H30.3334C31.2174 27.3333 32.0653 26.9821 32.6904 26.357C33.3155 25.7319 33.6667 24.884 33.6667 24V17.3333C32.7826 17.3333 31.9348 16.9821 31.3097 16.357C30.6846 15.7319 30.3334 14.884 30.3334 14Z" fill="white"/>
</svg>
